<svg width="36" height="28" viewBox="0 0 36 28" fill="none" xmlns="http://www.w3.org/2000/svg">
<path d="M35.5188 6.25595C35.1217 5.77744 34.5321 5.50053 33.9104 5.50053H32.2553L32.6309 5.12501C32.7611 4.99473 32.8342 4.81819 32.8342 4.63404C32.8342 4.44988 32.7611 4.27327 32.6309 4.14307L28.769 0.281237C28.4981 0.0101241 28.0584 0.0102034 27.7872 0.281316L23.2737 4.79486V0.772207C23.2737 0.388825 22.9628 0.0779617 22.5794 0.0779617H13.8266C13.4433 0.0779617 13.1324 0.388825 13.1324 0.772207V5.49395C13.1324 5.49617 13.1327 5.49839 13.1327 5.50053H10.3824L10.1542 4.31452C10.0084 3.55736 9.45757 2.94182 8.72104 2.7134L2.7095 0.848693C1.60728 0.506807 0.436422 1.12322 0.0943774 2.2256C-0.247588 3.32798 0.368981 4.49876 1.47128 4.84072L6.28649 6.33426L9.9564 22.4366C10.0843 23.1177 10.5341 23.6692 11.1304 23.9463C11.1127 24.0896 11.1025 24.235 11.1025 24.3827C11.1025 26.3345 12.6904 27.9221 14.642 27.9221C16.5935 27.9221 18.1814 26.3343 18.1814 24.3827C18.1814 24.3013 18.1777 24.2207 18.1721 24.1406H23.7597C23.7544 24.2207 23.7506 24.3012 23.7506 24.3827C23.7506 26.3345 25.3384 27.9221 27.2899 27.9221C29.2417 27.9221 30.8293 26.3343 30.8293 24.3827C30.8293 24.2954 30.825 24.2092 30.8188 24.1235C31.7131 24.0151 32.4504 23.3407 32.6202 22.4365L35.9641 7.97593C36.0791 7.36492 35.9157 6.73446 35.5188 6.25595ZM14.6421 26.1065C13.6917 26.1065 12.9182 25.3333 12.9182 24.3827C12.9182 23.4322 13.6917 22.6588 14.6421 22.6588C15.5926 22.6588 16.366 23.4321 16.366 24.3827C16.366 25.3333 15.5926 26.1065 14.6421 26.1065ZM27.2901 26.1065C26.3396 26.1065 25.5664 25.3333 25.5664 24.3827C25.5664 23.4322 26.3396 22.6588 27.2901 22.6588C28.2406 22.6588 29.014 23.4321 29.014 24.3827C29.014 25.3333 28.2407 26.1065 27.2901 26.1065ZM28.5048 18.9358H14.1828C13.4902 18.9358 12.9289 18.3744 12.9289 17.6818C12.9289 16.9893 13.4902 16.428 14.1828 16.428H28.5048C29.1974 16.428 29.7587 16.9893 29.7587 17.6818C29.7587 18.3744 29.1973 18.9358 28.5048 18.9358ZM28.5048 12.2485H14.1828C13.4902 12.2485 12.9289 11.6871 12.9289 10.9946C12.9289 10.3021 13.4902 9.74075 14.1828 9.74075H28.5048C29.1974 9.74075 29.7587 10.3021 29.7587 10.9946C29.7587 11.6871 29.1973 12.2485 28.5048 12.2485Z" fill="#FFA983"/>
</svg>
