<svg width="26" height="27" viewBox="0 0 26 27" fill="none" xmlns="http://www.w3.org/2000/svg">
<path d="M10.3695 0C4.63673 0 0 4.63673 0 10.3695C0 16.1023 4.63673 20.739 10.3695 20.739C12.4162 20.739 14.3105 20.1386 15.9164 19.1188L23.4076 26.61L26 24.0176L18.6041 16.6408C19.9337 14.8966 20.739 12.7355 20.739 10.3695C20.739 4.63673 16.1023 0 10.3695 0ZM10.3695 2.43988C14.7608 2.43988 18.2991 5.97819 18.2991 10.3695C18.2991 14.7608 14.7608 18.2991 10.3695 18.2991C5.97819 18.2991 2.43988 14.7608 2.43988 10.3695C2.43988 5.97819 5.97819 2.43988 10.3695 2.43988Z" fill="#414141"/>
</svg>
